<svg width="28" height="30" viewBox="0 0 28 30" fill="none" xmlns="http://www.w3.org/2000/svg">
<path d="M23 6L21.7986 24.0193C21.6935 25.5975 21.6408 26.3866 21.3 26.985C20.9999 27.5118 20.5472 27.9353 20.0016 28.1997C19.382 28.5 18.591 28.5 17.0093 28.5H10.9907C9.4089 28.5 8.61803 28.5 7.99833 28.1997C7.45275 27.9353 7.00008 27.5118 6.69998 26.985C6.3591 26.3866 6.3065 25.5975 6.20129 24.0193L5 6M2 6H26M20 6L19.5941 4.7821C19.2006 3.60187 19.0038 3.01176 18.639 2.57547C18.3168 2.19019 17.9031 1.89198 17.4357 1.70817C16.9064 1.5 16.2845 1.5 15.0404 1.5H12.9596C11.7155 1.5 11.0936 1.5 10.5643 1.70817C10.0969 1.89198 9.68312 2.19019 9.36094 2.57547C8.99608 3.01176 8.79938 3.60187 8.40596 4.7821L8 6M17 12V22.5M11 12V22.5" stroke="#073B4C" stroke-width="3" stroke-linecap="round" stroke-linejoin="round"/>
</svg>
