<svg width="79" height="79" viewBox="0 0 79 79" fill="none" xmlns="http://www.w3.org/2000/svg">
<path fill-rule="evenodd" clip-rule="evenodd" d="M73.4083 13.7878L42.0848 44.7138L38.6359 41.3094L69.9619 10.3834C70.9148 9.44279 72.4578 9.44279 73.4083 10.3834C74.3612 11.324 74.3612 12.8472 73.4083 13.7878ZM33.4664 53.2261C33.1479 52.9125 30.0175 49.8217 30.0175 49.8217L35.1896 44.7138L38.6359 48.1182L33.4664 53.2261ZM28.2943 65.1378C25.8651 67.3918 15.01 72.4157 8.6184 67.5448C8.6184 67.5448 10.8427 65.8093 12.5264 62.3259C16.548 51.6436 26.5712 53.2261 26.5712 53.2261L30.0175 56.628C30.0521 56.6626 32.5924 61.1532 28.2943 65.1378ZM76.8571 6.97899C74.0008 4.15967 69.3694 4.15967 66.5131 6.97899L24.1049 48.8514C18.9131 48.7329 11.7216 50.5722 8.6184 60.7385C6.24593 66.1154 0 65.8439 0 65.8439C12.9683 80.2293 28.2524 72.0775 31.7407 68.5422C34.8094 65.4365 35.2513 61.6346 34.9229 58.5931L76.8571 17.1922C79.7135 14.3704 79.7135 9.7983 76.8571 6.97899Z" fill="#073B4C"/>
</svg>
