<svg width="78" height="90" viewBox="0 0 78 90" fill="none" xmlns="http://www.w3.org/2000/svg">
<g clip-path="url(#clip0_249_231)">
<path d="M77.516 43.6485L57.6091 20.679C56.9901 19.9647 55.8949 19.9647 55.2758 20.679L50.96 25.6588C50.3154 26.4026 50.3154 27.6082 50.96 28.352L65.3849 44.9942L50.9608 61.6392C50.3162 62.3829 50.3162 63.5886 50.9608 64.3324L55.2767 69.3122C55.5862 69.6693 56.0063 69.8712 56.4437 69.8712C56.8803 69.8712 57.3013 69.6693 57.6108 69.3122L77.516 46.3436C78.1606 45.5989 78.1606 44.3923 77.516 43.6485Z" fill="#073B4C"/>
<path d="M27.0377 61.6391L12.6153 44.996L27.0402 28.3539C27.3497 27.9968 27.5238 27.513 27.5238 27.0073C27.5238 26.5025 27.3505 26.0178 27.0402 25.6607L22.7243 20.6809C22.4148 20.3237 21.9947 20.1228 21.5573 20.1228C21.1198 20.1228 20.6997 20.3237 20.3902 20.6809L0.482479 43.6485C-0.162129 44.3923 -0.162129 45.5979 0.482479 46.3426L20.3894 69.3112C20.6989 69.6683 21.119 69.8702 21.5564 69.8702C21.9939 69.8702 22.414 69.6683 22.7235 69.3112L27.0393 64.3314C27.6839 63.5886 27.6839 62.3829 27.0377 61.6391Z" fill="#073B4C"/>
<path d="M50.3194 12.9517C50.1097 12.508 49.7565 12.1784 49.3372 12.0356L45.8385 10.8442C44.9653 10.5452 44.0458 11.1233 43.7883 12.1318L27.546 75.5986C27.4222 76.0834 27.4701 76.6043 27.6789 77.0471C27.8877 77.4919 28.2418 77.8204 28.6611 77.9642L32.1598 79.1556C32.3158 79.2089 32.4734 79.2346 32.6277 79.2346C33.34 79.2346 33.9978 78.6975 34.21 77.868L50.4523 14.4003C50.5761 13.9155 50.529 13.3946 50.3194 12.9517Z" fill="#073B4C"/>
</g>
<defs>
<clipPath id="clip0_249_231">
<rect width="78" height="90" fill="white"/>
</clipPath>
</defs>
</svg>
