<svg width="33" height="32" viewBox="0 0 33 32" fill="none" xmlns="http://www.w3.org/2000/svg">
<path d="M16.001 2.94805e-07C7.17884 1.32254e-07 0.00656132 7.17734 0.0134263 16C0.0202917 24.8232 7.20374 32 16.0259 32C24.8483 32 32.0198 24.8232 32.0129 16C32.0058 7.17734 24.8231 4.57355e-07 16.001 2.94805e-07ZM23.3904 13.5347L14.9963 21.9359C14.8136 22.119 14.4896 22.119 14.3063 21.9359L8.66616 16.2999C8.57452 16.208 8.52384 16.0859 8.52374 15.9546C8.5239 15.8239 8.57439 15.7009 8.66562 15.6086L9.38539 14.8885C9.47688 14.7972 9.59927 14.7471 9.73078 14.7471C9.86152 14.7471 9.98425 14.7972 10.0756 14.8885L14.4726 19.2821C14.57 19.3804 14.7282 19.3804 14.8256 19.2821L21.9787 12.1234C22.1617 11.9403 22.4862 11.9403 22.669 12.1234L23.3899 12.8448C23.4815 12.9356 23.5332 13.059 23.5333 13.189C23.5334 13.3205 23.4819 13.4429 23.3904 13.5347Z" fill="#06D6A0"/>
</svg>
