<svg width="79" height="79" viewBox="0 0 79 79" fill="none" xmlns="http://www.w3.org/2000/svg">
<path d="M6.58398 39.5002C6.58398 57.6794 21.3213 72.4168 39.5006 72.4168C57.6799 72.4168 72.4173 57.6794 72.4173 39.5002C72.4173 21.3208 57.6799 6.5835 39.5006 6.5835C21.3213 6.5835 6.58398 21.3208 6.58398 39.5002Z" stroke="#073B4C" stroke-width="4.9375" stroke-linecap="round" stroke-linejoin="round"/>
<path d="M42.791 6.74561C42.791 6.74561 52.666 19.7497 52.666 39.4996C52.666 59.2496 42.791 72.254 42.791 72.254" stroke="#073B4C" stroke-width="4.9375" stroke-linecap="round" stroke-linejoin="round"/>
<path d="M36.209 72.254C36.209 72.254 26.334 59.2496 26.334 39.4996C26.334 19.7497 36.209 6.74561 36.209 6.74561" stroke="#073B4C" stroke-width="4.9375" stroke-linecap="round" stroke-linejoin="round"/>
<path d="M8.65625 51.021H70.3446" stroke="#073B4C" stroke-width="4.9375" stroke-linecap="round" stroke-linejoin="round"/>
<path d="M8.65625 27.979H70.3446" stroke="#073B4C" stroke-width="4.9375" stroke-linecap="round" stroke-linejoin="round"/>
</svg>
