<svg width="68" height="69" viewBox="0 0 68 69" fill="none" xmlns="http://www.w3.org/2000/svg">
<path d="M30.667 51.375H37.3337V31.125H30.667V51.375ZM34.0003 24.375C34.9448 24.375 35.737 24.051 36.377 23.403C37.017 22.755 37.3359 21.954 37.3337 21C37.3337 20.0438 37.0137 19.2416 36.3737 18.5936C35.7337 17.9456 34.9426 17.6228 34.0003 17.625C33.0559 17.625 32.2637 17.949 31.6237 18.597C30.9837 19.245 30.6648 20.046 30.667 21C30.667 21.9562 30.987 22.7584 31.627 23.4064C32.267 24.0544 33.0581 24.3772 34.0003 24.375ZM34.0003 68.25C29.3892 68.25 25.0559 67.3635 21.0003 65.5905C16.9448 63.8175 13.417 61.4134 10.417 58.3781C7.41699 55.3406 5.04255 51.7687 3.29366 47.6625C1.54477 43.5562 0.669214 39.1687 0.666992 34.5C0.666992 29.8313 1.54255 25.4438 3.29366 21.3375C5.04477 17.2313 7.41922 13.6594 10.417 10.6219C13.417 7.58438 16.9448 5.18025 21.0003 3.4095C25.0559 1.63875 29.3892 0.75225 34.0003 0.75C38.6114 0.75 42.9448 1.6365 47.0003 3.4095C51.0559 5.1825 54.5837 7.58663 57.5837 10.6219C60.5837 13.6594 62.9592 17.2313 64.7103 21.3375C66.4614 25.4438 67.3359 29.8313 67.3337 34.5C67.3337 39.1687 66.4581 43.5562 64.707 47.6625C62.9559 51.7687 60.5814 55.3406 57.5837 58.3781C54.5837 61.4156 51.0559 63.8209 47.0003 65.5939C42.9448 67.3669 38.6114 68.2522 34.0003 68.25ZM34.0003 61.5C41.4448 61.5 47.7503 58.8844 52.917 53.6531C58.0837 48.4219 60.667 42.0375 60.667 34.5C60.667 26.9625 58.0837 20.5781 52.917 15.3469C47.7503 10.1156 41.4448 7.5 34.0003 7.5C26.5559 7.5 20.2503 10.1156 15.0837 15.3469C9.91699 20.5781 7.33366 26.9625 7.33366 34.5C7.33366 42.0375 9.91699 48.4219 15.0837 53.6531C20.2503 58.8844 26.5559 61.5 34.0003 61.5Z" fill="#06D6A0"/>
</svg>
